<svg xmlns="http://www.w3.org/2000/svg" enable-background="new 0 0 55 55" viewBox="0 0 55 55">
    <path fill="#f8d11c" d="M48.1241112,6.877346c-0.8017693-0.0197544-1.7122765,0.405838-2.217308,0.9700117     c-0.676754,0.7559652-0.7581215,1.7832804-2.0786057,2.5238924c-0.1879997,0.0989523-0.0985909,0.3761158,0.118885,0.366209     c0.564476-0.0494766,1.1284714-0.1880579,1.613205-0.4553146c0.1783333-0.0890446,0.3663292,0.0891056,0.2774048,0.2672567     c-0.9897652,1.8310432-2.8803749,3.2266474-4.9488335,3.384984c-3.0673637,0.2386904-6.0107574-1.8696442-5.9187813-4.9191103     c0.0198135-1.8410115,1.0390587-3.6918697,2.6029701-4.6717286c1.5440903-0.9897666,3.6028824-1.1085336,5.2755318-0.3563015     c0.1585159,0.0791981,0.1483688,0.2969177-0.0101509,0.3662088C42.244957,4.6207099,41.769886,5.224453,41.5615921,5.828196     c1.734787-1.2104373,4.8090172-1.2032242,6.7012215,0.7126632C48.381218,6.659626,48.2922935,6.877346,48.1241112,6.877346z"/>
    <path fill="#ff614b" d="M15.9668512 19.9704266l-1.9370031-1.1888809c-.2160282-.1329021-.2967367-.4074078-.1870317-.6364841l1.3391809-2.7856522c-1.0859394-.4069252-2.2322903-.8665285-2.4700661-1.0743408-.2053957-.1797819-.2261772-.4924669-.0459118-.6983461.1754322-.202013.4799013-.2261772.6857805-.0565443.2165108.1440191 1.5556927.676115 2.682229 1.0898066.2719383.0993433.4025154.4137449.2754707.6790142l-1.3812265 2.8726416 1.5566587.9549713c.2329426.1430511.3059196.4480038.1628666.6809464C16.503912 20.0411892 16.1994972 20.1125202 15.9668512 19.9704266zM10.6019115 21.9881382c-.251791 0-.4634695-.1889648-.4919834-.4393063l-.3465147-3.0707874c-1.1362019.2324581-2.3535953.4552536-2.6633801.4025745-.2696729-.0425282-.453804-.2962532-.4107919-.5664082.0420456-.2643566.2904539-.443655.5504608-.413208.2551742-.0154667 1.6769972-.2542076 2.851861-.5021324.2817869-.0595894.5606842.1350994.5944395.4286728l.3576307 3.1664791 1.8253651-.0173988c.0019331 0 .0033827 0 .0048332 0 .271122 0 .4924669.2184448.4948826.4900513.0024166.2735386-.2169943.4972992-.4900503.4997158l-2.2719193.0217476C10.6052942 21.9881382 10.6033611 21.9881382 10.6019115 21.9881382zM19.5170593 19.2735291l-1.1864643-2.276268c-.1287022-.2463455-.0289574-.5523911.2237606-.6741829l2.4715176-1.1922617c-.7070465-.9602861-1.603056-2.2115097-1.7166271-2.5319271-.0908566-.2575912.0444622-.5403118.3020535-.631649.2566242-.0894117.5345116.0420418.6287518.2947998.1101894.2469578 1.069025 1.5943546 1.9360371 2.7595539.1858292.2487879.0975266.6068392-.1817131.7408743l-2.550293 1.2299595.9506207 1.8239155C20.6985073 19.3995056 19.8190212 19.852705 19.5170593 19.2735291z"/>
    <path d="M24.2194157,22.0171947l0.845747-2.3691196c0.1870308-0.5214634,0.7577896-0.8104687,1.2695885-0.6466351   c1.5436096,0.4963341,3.0756226,1.0878735,4.5535049,1.7586727c0.4890842,0.2227936,0.716711,0.8186836,0.5064831,1.3285484   c-0.1039066,0.252758,0.0164318,0.5417614,0.2691898,0.6461506c0.2532406,0.1034241,0.5417595-0.0164318,0.6461487-0.2691879   c0.4175606-1.0129642-0.0270615-2.1578655-1.0124798-2.6063538c-0.7481232-0.3397484-1.510746-0.6588974-2.2806187-0.9569035   c0.4895668-1.282938,1.5189629-2.3794498,2.7759857-2.9488192c0.02948-0.0198145,0.069109-0.0297222,0.0990734-0.0495367   c0.6784687,5.0402813,4.3548946,3.5301628,4.4239864,1.3559742c0.026741-1.4427071-1.388504-2.895896-3.4936638-2.6327515   c0.0430641-1.8070621,0.7685127-3.5360718,2.246788-4.5727158c0-0.0997009-0.1193275-0.3677206-0.0990715-1.0392427   c-0.517971,0-3.1745853,2.0140505-3.1374836,5.849493c-1.6445332,0.5790033-3.0902309,1.9371576-3.7575359,3.7028036   c-0.4784508-0.1727734-0.955452-0.3535213-1.4377708-0.5085354c-1.0129642-0.323801-2.1394997,0.2368088-2.5038967,1.2560558   l-0.9491692,2.6590919c-2.1341839-0.0274277-4.2659512,0.3963528-6.2686825,1.3019066   c-3.5937023,1.6262531-6.339241,4.5549564-7.7306166,8.2462807c-2.871676,7.618494,0.9907322,16.1542645,8.6097116,19.026907   c7.6508694,2.8834076,16.1669598-1.0214577,19.026907-8.6097107C40.253624,32.8320122,34.0582733,22.8451786,24.2194157,22.0171947   z M34.0793839,15.6961985c0.7225113,0.2474413,1.2570229,0.9006605,1.2468719,1.5341253   c-0.0174026,0.588089-0.6524963,1.2108822-1.2270584,1.0491505c-0.8489304-0.2381248-1.1434669-1.7756176-1.2372055-2.6525669   C33.3070946,15.5576162,33.7130547,15.5774307,34.0793839,15.6961985z M35.895565,41.5906372   c-2.6798096,7.1086273-10.6428871,10.7095795-17.7520008,8.0326691   c-7.1081467-2.6802979-10.7115154-10.643856-8.0326691-17.7520027c1.2981014-3.4438839,3.8595085-6.1758919,7.2125359-7.6934032   c3.2509823-1.471262,6.9957409-1.675745,10.539465-0.3392658C34.9710426,26.5174789,38.5744133,34.481041,35.895565,41.5906372z"/>
    <path d="M17.4780827 26.1139374c-.1860657-.201046-.4997177-.213129-.6993141-.0265808-.2005615.1855812-.2126446.4987488-.0265808.6993122.6297207.6801014 1.2391415 1.3879948 1.8524303 2.0900841-1.074543.438427-1.33881 2.2906265-.362463 2.6579437.5480442.2068443 1.2188435-.2258759 1.4981804-.9668713.0386639-.1037846.0463963-.205759.0662098-.309.8220673.9772015 1.6315689 1.9657574 2.4106236 2.9690571.1676426.2157784.4784222.2550049.694479.0874748.2160282-.1676979.2551746-.4784508.0874748-.6944809C21.2602654 30.3808537 19.4025211 28.191576 17.4780827 26.1139374zM25.8340683 33.5458832c.0460243.2701912.3027515.4507179.5707588.4045105l3.7589855-.6407738c-.4578476.862133-.1701527 1.7288666.3827629 1.936882.9679966.365345 2.0243244-1.1784019 1.4503365-2.2493286l2.4541187-.4183426c.2696724-.0459099.450901-.3015671.4045067-.5707588-.0459099-.2696724-.2991524-.4475193-.5707588-.4045086l-8.0462017 1.3715611C25.969389 33.0205536 25.7881565 33.2762108 25.8340683 33.5458832zM15.8291159 35.9772873c-.0860252-.2595215-.3653631-.4011269-.6248875-.3155861-.2595234.0855446-.4011259.3653641-.3155842.6248894l1.1033382 3.3462601c.0857973.2598114.3662901.3998489.6253691.3151016.2595253-.0855408.4006443-.3653641.3151016-.62537L15.8291159 35.9772873z"/>
</svg>