<svg xmlns="http://www.w3.org/2000/svg" enable-background="new 0 0 55 55" viewBox="0 0 55 55">
    <path fill="#b0a2fe" d="M17.8015499,15.0940609c1.7751637,0.7108803,3.2260323,2.1888523,5.0996017,2.5744133     c2.7298584,0.5612183,5.6076794-1.3176613,7.7894707,0.9538517c1.0151024,1.0562687,2.3063145,1.5281773,3.7812862,1.2088795     c3.017662-0.6560841,4.8294945-3.7302036,7.673996-4.8013992c1.4237518-0.5361633,3.197937-0.4568481,4.2702637,0.6225252     c1.3885994,1.4001417,1.3673973,4.1542215-1.1898079,6.2773638c-1.9418526,1.6104965-4.6397476,2.2641392-7.1027031,1.7209435     c-0.8152924-0.1797276-1.6095009-0.482954-2.4418602-0.5281353c-1.8785934-0.101408-1.9840279,1.2239552-2.9599724,2.3836403     c-3.1384239,3.725975-7.6428452,6.2323189-12.2133369,7.8667774c-2.0253181,0.7241631-3.136158,0.5138016-4.3114281-2.1777897     c-0.6656847-1.5221577-1.3092909-3.0523415-1.9538946-4.5835228c-3.8738499-9.2028637-4.5756693-9.6959915-2.2802095-11.0225363     C13.7150307,14.5779829,15.9068861,14.3349972,17.8015499,15.0940609L17.8015499,15.0940609z"/>
    <path fill="#b0a2fe" d="M35.5452461,13.0772133c0.5733147-0.8464069,0.7208977-1.9559011,1.3444214-2.7762165     c1.6677475-2.1968651,6.819561-0.8273335,4.748188,2.2912712c-1.2103577,1.8207216-5.2703781,3.5091381-9.0877151,2.1627302     C33.7127266,14.4281225,34.8706436,14.0692387,35.5452461,13.0772133L35.5452461,13.0772133z"/>
    <path fill="#bae113" d="M11.9358988,11.0785036c-0.0976038,0.0489817-0.1956863,0.0980234-0.3038168,0.127388     c-0.2057343,0.0685978-0.4210377,0.0979633-0.6267719,0.0882149c-1.1368008-0.0294247-2.2831717-1.0092945-2.7439203-2.4692898     C7.7226529,7.1002374,8.3494244,5.36585,9.662775,4.9445133c1.3229189-0.4115281,2.8319559,0.6565557,3.3706923,2.3810749     C13.5329714,8.9129715,13.0530844,10.5004148,11.9358988,11.0785036z"/>
    <path d="M28.3147373 14.4507513c1.909193-.7601614 2.8587685-2.798871 2.7056446-4.759099 2.2841301-1.1736422 3.6190109-3.5481987 4.6950493-5.4615273.1325302-.2358766.0488014-.5344305-.1870766-.6674399-.2363548-.1320527-.5353889-.0488021-.6674385.1870747-1.1803436 2.0994463-2.3070946 3.9271317-4.0228233 4.9251823-.9389839-3.334352-4.3262939-2.6705227-4.1204262-.4583569.1349125 1.4423895 1.5082188 2.3518181 3.341507 1.8544788.016201 1.6736155-.9315758 3.2864695-2.6668911 3.6357546.5339718-2.5771351-1.1890087-4.4751635-2.8510933-3.9792824-1.0644836.3122911-1.7771797 1.6197329-1.1803417 2.9986362-4.3237667-1.0705357-8.340848-.9917107-10.9393196-.2108774-.1550188-.4740858-.3124294-.9512825-.4755812-1.4269829l-.0100479-.0098085c-.0976038.0489817-.1956863.0980234-.3038168.127388-.2057343.0685978-.4210377.0979633-.6267719.0882149 0 .0391731.0095692.0783463.0196171.1077709.1669798.4858084.3176918.97048.4703178 1.4498291-1.0664692.4600306-1.7812757 1.0644951-1.9903593 1.7742186-.6355619 2.1540337 5.016201 14.0214119 5.9615088 16.1740608.5420856 1.2374554 1.2253151 2.5856152 2.4238358 3.2246456-.6463871 2.6090584-1.782711 6.6271553-2.782196 9.9650116-1.9444275-.6327515-3.6773806-.8908768-5.6835279-.4508781-.2645845.0578918-.4315634.3191261-.3736715.5832329.0578928.2645836.3239126.4301262.5832329.3736687 1.8162031-.3989067 3.3654299-.1684723 5.1912012.4306679-.2306137.7606773-.4507008 1.4738083-.6502151 2.1046486-.0818157.257885.0612411.533474.3191271.6148109.2537842.0813103.5323086-.0584717.61481-.3191261.1971226-.6231842.41434-1.3271065.6420822-2.0771408 1.0116377.3750343 2.0959902.7679596 2.9534826 1.3977394.8291569.609066 1.3387089 1.4056892 1.3635883 2.1310234.0181808.5392151-.152626.9377632-.521513 1.2181358-1.9907417 1.5088615-9.4011555-.4246902-10.7077503-2.5448837-.3277712-.5328636-.2342768-.9992409.3559685-1.2066536 1.0096025-.357811 3.3914928.627018 3.5371943 1.0324974-.5724125.1631813-.3979912 1.007473.1621943.959774.8268156-.0440559 1.412776-1.3817902-.0827713-2.1630783-.4090767-.2133904-2.5233545-1.2559357-3.9414864-.7535629-.5521326.1937714-.9607306.5822754-1.1205335 1.0645561-1.1450715 3.4181709 9.5047646 6.5809364 12.3895073 4.3917084 1.2743282-.966259 1.4023972-3.2611084-.8545151-4.9189644-.9583225-.7044716-2.1293335-1.1349907-3.2501221-1.5471344.9951801-3.3213501 2.1281528-7.3225822 2.7845898-9.9576569 1.2244148.2194595 2.4909477-.2543869 3.6333618-.769886 5.2117748-2.3536854 9.2240715-6.0881214 12.8751354-9.7559319.5483055-.3597355.9090576-.7896252 1.0530739-1.2786026C36.9871559 20.4892902 33.6494751 16.8884029 28.3147373 14.4507513zM27.6932297 8.125679c-.1003265-1.1001339 1.6812935-1.2793193 2.2410679.959774C28.5640812 9.5197153 27.768589 8.9271336 27.6932297 8.125679zM25.0469131 10.6351585c.3722343 0 .7511692.2387476.96982.5210342.3797264.4918594.6382141 1.4239426.3822842 2.5087023-.4856281-.1796589-.9817829-.3492699-1.4918137-.5064421C23.6061039 12.0959768 24.1181316 10.6351585 25.0469131 10.6351585zM22.0494118 32.6903496c-3.185421 1.437294-4.3190651.8338127-5.685442-2.2841301-1.6441841-3.7444477-3.6594553-7.8790913-5.0529289-11.982584 4.8744526 4.7052307 15.2985859 7.6934204 21.7370205 6.2751331C29.8797531 27.7696514 26.3779659 30.7355156 22.0494118 32.6903496zM35.4407997 22.2720623c-.3432159 1.15835-3.105854 1.6218319-4.3118095 1.725296-2.8104248.2382698-6.1681995-.1588459-9.4484634-1.1253185-7.1313238-2.1023159-11.7325945-6.2839851-11.2359619-7.9690914.1196127-.4049501.5985432-.7977581 1.3501911-1.1287279.3615942 1.1083755.627346 2.0453348.7191124 2.3996153.1356287.620203 1.0929928.4045067.9506845-.2351589-.3377094-1.2091389-.4628668-1.6309509-.739687-2.493392 3.5072947-1.0255098 8.1582327-.4815044 11.7024508.5875387.4822807.3524399 1.0487671.5798244 1.6468315.6730022-.5181637 1.3506699-1.3927727 2.8286076-2.0606918 3.4065762-.2047768.1770287-.2267857.4861069-.0497589.6908855.1763382.2042713.4857693.2273846.6908836.0497589.8167171-.706255 1.7980232-2.3573914 2.3669014-3.8997412C32.6777382 17.2890472 35.8541794 20.8694801 35.4407997 22.2720623zM10.1775885 6.0798197l.0794239-.079423c.1928158-.189467.1956863-.4999824.0057411-.6927981C10.0728083 5.1143041 9.7627716 5.1114335 9.5699549 5.301857L9.4790497 5.3927631C9.2891045 5.5855789 9.291975 5.8960943 9.4847908 6.0855613 9.6787338 6.2756257 9.9887285 6.2724576 10.1775885 6.0798197z"/>
</svg>