<svg xmlns="http://www.w3.org/2000/svg" enable-background="new 0 0 55 55" viewBox="0 0 55 55">
    <path fill="#bae113" d="M34.5037651,17.4289036c-1.7537117,0.0796032-3.5836258,0.4894085-4.8814716,1.6715374     c-1.2978477,1.182127-1.8534813,3.3004589-0.8604794,4.7481384c0.3831272,0.5585537,0.9466095,0.9660873,1.3895111,1.4785366     c0.4428997,0.5124493,0.7703648,1.2219887,0.5418339,1.8595924c-0.1758633,0.4906654-0.6397228,0.824667-0.8655834,1.2944183     c-0.2258606,0.4697533,0.0337086,1.2362919,0.5450878,1.135437c0.19767-0.0389843,0.345541-0.1983719,0.4820576-0.34655     c1.8339081-1.9905682,5.0039635-4.4033146,7.841259-4.1907253c1.4282494,0.1070137,2.7794685-0.1717453,4.2134171-0.1460266     c1.673111,0.0300083,2.3799324-0.0178108,4.0486832-0.1419945c1.0287094-0.0765743,2.0994415-0.1971302,2.9659157-0.7568893     c1.2916985-0.8344631,1.8485031-2.5784931,1.4484596-4.063345c-0.4000397-1.4848537-1.646431-2.665287-3.0989685-3.1702194     c-1.3918266-0.4838276-1.597374-0.2038097-2.9923553-0.0341511c-1.1652451,0.1417179-2.4158325-0.0256863-3.615921,0.0176506     c-2.8663025,0.1035061-5.732605,0.2070122-8.5989113,0.3105183c-1.1455688,0.0413666-2.2234516,0.5498772-3.1724224,1.1929111     c-2.6134396,1.7709007-2.4146252,5.4374447-0.32271,5.8052139L34.5037651,17.4289036z"/>
    <path fill="#ff624c" d="M10.3261833,39.1944847c0.5502262,0.3557167,1.2699232-0.1217232,1.6627779-0.5073128     c0.835886-0.8204269,2.1148005-1.1747742,4.3940401-3.8184357c4.3804741-5.0808563,1.6630154-10.353117-2.5291204-10.1221657     c-0.5749712,0.0316772-1.1454964,0.1709137-1.6642408,0.4225368c-0.5661201,0.2746029-0.7504854,0.8550568-1.2828875,1.1536751     c-0.6324215,0.3547058-1.4054632,0.0131721-2.1176262-0.1231995c-1.473043-0.2820683-3.0652075,0.4449959-3.8884211,1.6986866     c-0.8232136,1.2536888-0.8745432,2.9507256-0.20575,4.2931633c1.1781092,2.3647614,4.2285504,3.4789619,5.0749507,5.9816933     C9.8967896,38.5483093,9.9935722,38.9794655,10.3261833,39.1944847z"/>
    <path d="M25.8379002 42.0589752c0 .7285385.590229 1.319191 1.3187084 1.319191.7289639 0 1.3196754-.5906525 1.3196754-1.319191 0-.7286034-.5907116-1.319252-1.3196754-1.319252C26.4281292 40.7397232 25.8379002 41.3303719 25.8379002 42.0589752zM26.3488522 12.9846172c.2663517-.0159521.469862-.2450819.4539108-.5119181-.0154705-.2663517-.2349319-.4640608-.511919-.4539099l-2.3367424.1397018c-.2184963.013052-.4012203.1711226-.4452095.3857517-.120779.5893011.6815166.6165791.5032177.5800762L26.3488522 12.9846172zM28.6043835 12.7111959c.306776 0 .6155663-.2630749.5244865-.5939751-.0331364-.373209-.4580021-.540946-.7521667-.3861132-.3518734.1758175-.4161777.7504759.0691261.9504194C28.5448742 12.7000599 28.7034283 12.7297287 28.6043835 12.7111959zM36.8047371 38.0845413c0-.2673187-.2165642-.4838829-.4838829-.4838829-5.9110413 0-11.9942379-.0613899-17.9760952-.0613899-.2673187 0-.483881.2165604-.483881.4838791s.2165623.4838829.483881.4838829c5.9130192 0 12.0043678.0613899 17.9760952.0613899C36.5881729 38.5684204 36.8047371 38.35186 36.8047371 38.0845413zM18.0271664 15.0825615c0 .2673187.2165623.483881.483881.483881h17.2916069c.2673187 0 .4838791-.2165623.4838791-.483881s-.2165604-.48388-.4838791-.48388H18.5110474C18.2437286 14.5986814 18.0271664 14.8152428 18.0271664 15.0825615z"/>
    <path d="M49.7902374,23.3834c-1.0098152,1.009758-2.2376442,1.0394859-3.5442657,1.0593052   c-2.3805237,0.0794811-4.8114777,0.2989311-10.801033,0.4058723c-0.5088501,0-0.6946907,0.8486633-5.0587521,4.1480942   c0.5244865-1.0295773,0.8019562-1.7424068,1.3564129-3.2768917c0.1295376-0.3235779-0.1350708-0.6533718-0.4553604-0.6533718   c-2.0105381,0-3.4998493-2.2492752-2.9206867-4.3659229c0.7632942-2.7105618,3.7288647-2.9565125,6.5437489-3.0095711   c1.345356-0.0286407,2.5565033-0.1444664,10.1672974-0.3861141c0.6094322-0.0225925,0.6604919-0.9463654-0.0294876-0.9701786   c-1.8808975,0.0593967-3.8014374,0.1187954-5.7321243,0.2078609c-0.0327072-0.9410353,0.0339775-1.9298019-0.3364449-4.4945679   c-0.2413902-1.6579065-0.9535789-2.1055431-2.6635208-2.2274952c-0.5143356-0.0395784-1.0093346-0.0891266-1.5043335-0.1386147   c-3.122467-0.3500662-2.1902428-0.0667667-7.2669106-0.1484632c-3.4602642-0.083127-3.4138126,0.0296688-4.9698086,0.0296688   c-3.2967701,0.0198193-6.5335979,0.1781921-6.7810974,1.7424059c-0.4608717,2.9311943-0.0583792,11.0778351-0.1189156,13.3154812   c-0.9605103-0.4653301-2.1085796-0.7623177-2.9801445-0.4256916c-0.8116245,0.3168068-1.5246353,1.0493946-2.0394535,1.9007797   c-2.6347914-1.4306011-5.3280826-0.8376598-6.6626654,2.0096626c-1.4946647,3.1580963,0.7226789,5.138092,2.5049651,6.722126   c1.5389204,1.4008446,3.414197,3.1102753,3.346076,5.2767029c-0.0230837,0.4726639,0.5684328,0.6709671,0.8415947,0.3365669   c1.2137098-1.4074326,3.1018791-2.9412041,4.7121572-4.1480942c-0.0867538,2.708416,0.0675163,3.687336-0.0096674,6.5636902   c-0.0396385,1.5543022,0.8314438,1.9700851,1.3564129,2.0789719c2.3489704,0.5070877,14.8150463,0.7039604,19.17589,0.4554214   c0.1783714-0.0099106,0.3959007,0,0.6240654,0c2.2954826,0.0589294,2.901062-0.4200897,2.8409271-2.673008   c-0.0403786-0.8266869,0.3791428-2.0047073-0.0990982-12.1571407c-0.0294876-0.9306011-0.0691261-1.8018036-0.0986137-2.8907776   c-0.0101509-0.2673187-0.2474976-0.4752388-0.4949989-0.4653301c-0.2673187,0-0.4853287,0.2276802-0.4751778,0.4949989   c0.0294876,1.0988827,0.0691261,1.9700871,0.1087646,2.9006863c0.4317741,12.1236439,0.0214195,10.4878521,0.0889435,12.1472912   c0.0670357,1.6742134-0.1234398,1.7039566-1.8514099,1.6730995c-0.2571678,0-0.4949989-0.0099106-0.7028618,0.0099106   c-4.7953548,0.2663727-16.7687321-0.0059547-18.9187202-0.4356003c-0.1682224-0.0396423-0.6134319-0.1287079-0.5839443-1.1087952   c0.0790577-2.9993553-0.0915089-4.0274315,0.0198193-7.424984c0.9410458-0.8499031,1.9660091-2.5087242,2.3758984-4.1480923   c0.5944481-2.3672256-0.150816-4.8935852-2.1187305-6.1578159c0.0928288-2.1793613-0.3187523-10.9589281,0.1189156-13.6916866   c0.1453667-0.9922695,5.9178562-0.910675,6.6728172-0.9503593c3.194973-0.1381006,5.182272,0.109868,8.2467575-0.0396385   c1.5959969-0.0596399,2.9913788,0.1974239,4.5734215,0.3168068c1.2970619,0.0911388,1.6085892,0.2521009,1.7721367,1.3959303   c0.3474617,2.4324207,0.3032913,3.5329847,0.3369255,4.3955927c-2.7105026,0.1160088-1.7703629,0.1019001-3.4649887,0.1385536   c-1.5942459,0.0297298-3.2571335,0.0693073-4.9205036,0.7920475c-1.2374973,0.5444851-2.1680374,1.6137009-2.5344524,2.9303532   c-0.6674767,2.3545074,0.7556973,5.067276,3.1875229,5.5341148c-1.5078526,4.083437-2.5849781,4.5321064-1.9993324,5.0489635   c0.1973419,0.1585274,0.4458847,0.1480198,0.6037636,0.0297298c3.3165894-2.4354172,4.0590897-3.0591202,6.4248352-5.2469769   c5.6427994-0.0858383,8.6857338-0.3295097,10.6129875-0.3960228c1.4352074-0.0297279,2.9202042-0.0593967,4.207489-1.3463821   c0.1880417-0.1881027,0.1880417-0.4949989,0-0.6831017C50.2852364,23.1952991,49.9782791,23.1952991,49.7902374,23.3834z    M11.0319242,27.4918556c0.9959345,0.7633858,2.4729424,2.42173,1.7324953,3.4353237   c-0.3674908,0.5030556-1.2315845,0.3812008-1.6237316-0.0792179   C10.3850708,30.0087509,10.6075172,28.5393925,11.0319242,27.4918556z M16.4570923,33.9268417   c-0.0101509,0-0.0101509,0.0099068-0.0101509,0.0099068c-1.1013937,1.5274277-3.1781139,2.4478264-5.7417946,5.0687866   c-1.0546389-4.8117104-7.9268851-6.0431366-5.8408895-10.4939537c1.1233897-2.3720722,3.2644134-2.719883,5.3458915-1.5543041   c-0.6653471,1.4804344-0.8275194,3.3711548,0.20786,4.5342064c0.7977114,0.9086285,2.4008007,1.0276814,3.138216-0.0099087   c0.3465958-0.4850903,0.4553604-1.16819,0.287138-1.8314724c-0.1484032-0.6138535-0.4949989-1.1088524-0.771986-1.4751472   c-0.4655113-0.6038837-1.0102997-1.1285515-1.594244-1.5543041c0.4157219-0.702858,0.9701786-1.2869835,1.5739422-1.5245743   c0.6438847-0.2474995,1.7721338,0.1287041,2.6335487,0.6137943C18.7605934,27.3997784,18.4777393,31.001173,16.4570923,33.9268417z   "/>
    <path d="M33.2396812 21.4363976c.0570412.7093239.678688 1.2379189 1.3878326 1.1805763s1.2379799-.6788101 1.1804581-1.3881359c-.0570412-.7093258-.6786919-1.2379208-1.3878326-1.1805763C33.7105103 20.1056042 33.1821556 20.7270718 33.2396812 21.4363976zM40.3857422 20.8588581c.0575256.7093258.6786919 1.2379208 1.3878365 1.1805763.7096252-.0573425 1.2379799-.6788101 1.1809387-1.3881359-.0575256-.7093239-.6791725-1.2379189-1.3883171-1.1805763S40.3282204 20.1495323 40.3857422 20.8588581zM46.9691315 22.0394344c.7091446-.0573425 1.2374992-.6788101 1.1804581-1.3881359-.0575256-.7093239-.6786919-1.2379189-1.3883171-1.1805763-.7091446.0573425-1.2374992.6788101-1.1804581 1.3881359C45.63834 21.5681839 46.2595062 22.0967789 46.9691315 22.0394344z"/>
</svg>