<svg xmlns="http://www.w3.org/2000/svg" enable-background="new 0 0 55 55" viewBox="0 0 55 55">
    <path fill="#f8d11c" d="M21.7325783,42.7884102c2.1489563,1.8919411,1.8697472,4.2095261,0.7211094,4.9060402    c-0.4941654,0.2995911-1.2852516,0.4316368-1.8575039,0.4577751c-0.6031017,0.0275536-1.2015228-0.2631989-1.7867584,0.1468086    c-0.4255219,0.298111-0.7067966,0.7550163-1.0530167,1.1424065c-1.431139,1.6013222-4.0619526,1.8526459-5.8882771,0.7226295    c-2.5215578-1.5601845-2.9005318-4.6142197-2.101716-7.2288742c0.6703339-2.1941528,2.4616442-4.97826,5.1414957-3.947567    c0.5730066,0.2204285,1.0300169,0.6576271,1.4925709,1.061367c1.8076,1.5777473,2.2744617,0.4910583,3.5252342,1.4100037    C20.5221977,41.8972359,21.1737518,42.2964172,21.7325783,42.7884102z"/>
    <path fill="#b0a2fe" d="M31.4949207,31.0652409c0.0935745,0.4693813,0.2087193,0.5796223,0.6255665,0.6732197    c1.9067078,0.4281197,3.8849792,0.5357056,5.82687,0.3168831c0.2652016-1.1387215,0.3839798-2.3114605,0.3524895-3.4802322    c-0.0054169-0.2010765-0.02248-0.4202328-0.1589966-0.5679626c-0.1433067-0.1550732-0.3737869-0.1842537-0.5841255-0.2027416    c-2.0843124-0.1831932-4.1785431-0.2534943-6.2704468-0.2104912c-0.1696892,0.0034885-0.3686047,0.0237617-0.4562778,0.1690903    C30.7706738,27.8613472,30.761179,27.384779,31.4949207,31.0652409z"/>
    <path fill="#ff624c" d="M25.0243664,30.7954865c-0.0570488,0.2173157-0.1260872,0.4449425-0.2912979,0.5972137    c-0.2243233,0.2067528-0.5603962,0.2192459-0.8654671,0.2202034c-4.3886471,0.0137768-4.7439861,0.1078835-5.1282787-0.2655048    c-0.3021374-0.2935638-0.2982464-0.7734699-0.2516727-1.1921558c0.0613289-0.5513535,0.1602478-1.0985222,0.2958412-1.6364498    c0.1820984-0.7224197,0.4213638-0.8900604,1.1161156-0.94314c1.505127-0.114994,3.2956619-0.2066612,4.7686844,0.1888313    C25.9972038,28.1212845,25.3051319,29.7259636,25.0243664,30.7954865z"/>
    <path fill="#f8d11c" d="M21.0037441,5.8668747c-1.6208076,0.9294057-2.8720894,2.5703373-3.094574,4.3846998    c-2.713788-2.1995249-7.991148-0.9058332-7.1813221,6.0575495c0.1380911,1.1873894,0.305047,2.4455605,1.0600948,3.3722839    c0.8336554,1.0232086,2.2630062,1.4292259,3.5738554,1.2755775c1.3108492-0.1536503,2.5179434-0.7954712,3.5918665-1.5626888    c-0.1060047-0.7153816,1.0312977-1.5828857,1.7424679-1.4515667c1.5012016,0.2772007,1.8496208,2.2619038,2.6124783,3.2779789    c0.8100166,1.078886,2.233551,1.5793667,3.5811596,1.5155697c1.8421497-0.0872097,4.255434-2.6088867,5.8785858-1.7624302    c0.8081779,0.4214535,1.3696175,1.2037735,2.1380501,1.6940022c1.7245331,1.1001892,6.2198257,1.0436802,7.8400841-0.2274208    c2.0117531-1.578886,2.6900711-4.8717041,2.8628464-7.2215128c0.1411438-1.9195652-0.3383789-3.9602966-1.665947-5.3538952    c-0.8067589-0.8468838-1.6937256-0.9577332-2.7056885-1.373312c-1.1480522-0.4714699-2.2733955-0.7974324-3.5294151-0.7736473    c-0.4938927,0.0093527-0.9959641,0.0649624-1.4762573-0.0505185c-1.7080498-0.4106798-2.4206924-2.5154943-3.9873886-3.2771921    c-1.5323734-0.7450101-3.3652458-0.6615112-4.9412537-0.0828447c-0.6821613,0.2505012-1.3176994,0.6548843-2.037014,0.7582216    c-2.0567074,0.2954679-3.0354443,0.3000927-4.7991657,1.389307c-1.4555607,0.8989038-4.1025372,1.7498279-3.2868862,4.0821843    c0.148243-0.0967216,0.2964878-0.1934443,0.4447308-0.2901659L21.0037441,5.8668747z"/>
    <path d="M45.2499847 22.1721954c-.2685852-.0095921-.5131912.1908875-.531414.4666653-.154438 2.3961544-.7194214 4.85466-1.264267 7.2321091-.9052238 3.9399624-1.7176971 8.3028164-3.7285233 13.686285-.3177986.9146156-.6146851 1.8415947-1.1155815 2.0685806-.8383675.3788948-1.9175034.3218193-2.9601822.2647476-3.257412-.1786613-2.2337761.292141-10.7261047-.1717033-.2743397-.0278168-.5112686.1961632-.5256577.4714622-.0153484.2757759.1956825.5112686.471941.5261345 7.4537296.4071579 6.1187019.1358604 9.6776638.1333351.346283.0302162.687767.0191841 1.0474815.0383682 3.7387009.2005196 4.2126083-.5207291 4.9438667-2.6345253.4247055-1.3009415 1.8537827-4.7064705 3.3812828-11.8963623.6797256-3.1788368 1.5868683-6.4257584 1.7956772-9.6541634C45.7334328 22.4278297 45.52528 22.1904202 45.2499847 22.1721954zM12.2390623 21.4522934c-.2676249-.0916061-.5458012.0484409-.6359692.3098316-.2877712.8410969.8494263 2.1141129 1.7237358 7.0795918.4756346 2.7062759 1.0229597 5.3765793 1.4839277 8.1337852.0412464.2441254.2522774.4172668.4920845.4172668.3114634 0 .5443335-.2781258.4940033-.5822525-.4633989-2.7726402-1.0202551-5.4891491-1.4858465-8.1419392-.7243109-4.1099567-1.8174257-6.4055481-1.762104-6.581274C12.6381016 21.8263931 12.4999733 21.5419827 12.2390623 21.4522934zM17.2462406 40.1704559c-1.5223436-2.2392159-5.1102009-2.2661896-7.2728777.6400452-1.8282919 2.4589844-1.7064695 6.2143707.2772169 8.5486526 1.180151 1.3905754 2.9914904 2.2747345 4.7846365 2.1242142 3.0456324-.2573433 5.2570143-3.5542488 3.303586-6.2498589-1.4273815-1.9692574-3.9446707-1.7079582-3.8925533-.2139091.0105515.2925644.1438847.5539551.3664255.7175064.2215824.1630669.5688238.1031151.7318926-.1184654.1640282-.2225418.1496401-.5467606-.0729017-.7103119.2535696-.213604 1.3459425-.070343 2.058507.911747 1.4661789 2.026226-.254797 4.4715385-2.5793686 4.667614-1.3975973.1131859-2.9093428-.5625916-3.9385958-1.7750549-1.6949587-1.9951973-1.7995138-5.2042999-.2369299-7.3054924 1.8713274-2.5169678 4.8753986-2.27742 5.798542-.4292564.1208687.2445755.4327869.3673363.7050343.1971817 3.9018726.1248932 6.2821102 4.1644897 5.2661686 6.1035194-.3245106.6165695-1.1906013 1.0259895-1.7659416.6738586-.2359695-.1429253-.542923-.0700264-.6868076.1669044-.6126156 1.0046883 2.2687721 1.6568375 3.3371582-.3760185.4681053-.8911247.4652271-2.0474739-.0057545-3.2561035C22.4529362 42.0009079 19.9138565 40.2284889 17.2462406 40.1704559z"/>
    <path d="M22.3953838 34.2488937c2.9222851-.3238602 3.7883606-.2533875 4.7337971-3.0417156.1640606-.487793.3491898-1.0715408.6187019-1.2844086.3664265-.2920856 1.0225391-.0537167 1.340044.3443623.8162861 1.0226326-.0902767 3.2333221 2.7357216 3.7573013 2.3845615.4433479 5.1993618.7461967 7.4992542-.0239792 1.0522766-.3515587 1.0752983-1.0892067 1.0964012-1.7405243-.0167694-.3854313.2192078-1.1124554-.4105492-5.4791164-.1293526-.9122391.4758034-1.1721306-6.7453041-1.7539501-1.3514385-.0822754-3.5646534-.3549862-7.4954166-.2422066-2.3481941.0657082-4.6704884.2618694-6.903574.5832119-.692564.0988007-1.1520348.2201424-1.4551506.54772v.0004787c-1.0503712 1.1407833-.6435051 3.3899498-.8776951 5.3822365C16.1920223 34.1593628 19.5402546 34.5606155 22.3953838 34.2488937zM17.5234566 31.4153309c.0729027-.6191826.0872898-1.2503567.0997601-1.8604259.0668564-3.0443535.330286-3.0472622 1.3832092-3.1980705 2.1956768-.315588 4.4796009-.5083923 6.7903843-.5736198 4.501112-.1230412 11.9498405.5405922 13.1951599.9453201l.0278168.1942444c.6143188 4.2608967.3850861 4.966383.4000015 5.3054962-.0191879.6345329-.0326157.6968803-.4134293.8244591-2.224453.7438812-5.0599365.3496399-7.0004578-.0105515-1.1363716-.2108917-1.2996788-.5747032-1.5107841-1.7266121-.0988007-.5405273-.211031-1.1525154-.6263771-1.6714573-.4057541-.5088711-1.0685825-.8527565-1.7179794-.8527565-2.2873611 0-1.5816631 3.4150944-3.3064651 4.063776-.7540302.2843056-1.7122688.3074036-2.5582638.3999977C20.2644444 33.4754982 17.2859669 33.4339905 17.5234566 31.4153309zM36.3540878 7.2523413c-2.7994804-3.5124018-8.1079102-5.2948327-11.2747803-2.0426788-2.8338242-1.2724423-6.7147541.1137896-8.2484131 3.888236-4.239543-1.1590557-7.1474981 2.2945595-5.4963856 7.1275539 2.0550117 6.0295849 7.5781116 5.4489613 8.7548866 2.517498.1035976-.256115-.0211029-.5472412-.2772179-.6503582-.2503586-.1021576-.5467606.0211029-.6493969.2772179-.5610657 1.3954105-2.5185566 1.8472233-3.8829613 1.2604275-2.8800907-1.2363396-4.6169157-6.663949-2.3913584-8.8575239.9285336-.9155846 2.3127022-1.0599489 3.6210909-.7194223-.3870506 1.4215879-.5123634 3.4035425.2848911 4.6575384.5784149.9122267 1.6345272 1.3999949 2.5649796 1.1860867 1.2748146-.2949629 1.882967-1.6949577 1.7141418-2.8234911-.2416782-1.6207237-1.7938652-2.9783516-3.3007069-3.6407557 1.2645321-3.0565453 4.3384781-4.2859621 6.6464996-3.4134178-2.2287045 3.2895222-.1844139 6.8589439 2.0709763 6.2234802 2.0800591-.592433 2.3836002-4.4522443-.5141468-6.5189228 2.6820259-2.4601316 6.9507923-.8875346 9.3304234 1.8258934-3.3240147 1.1723413-5.1975613 4.0442543-5.2489033 6.1865501-.0670071 2.8317308 2.5705357 4.2234621 5.0282803 3.0632982 2.6439247-1.2503748 4.0410652-5.1836433 1.8992767-8.6532078 4.3238983-.6782136 7.9813156 2.7137213 8.3126793 6.5759974.26091 3.0513086-1.5961571 6.1371489-4.4143715 7.3376245-2.8182182 1.2004757-6.3280373.3990402-8.3472137-1.9050293-.1822548-.2076721-.4978409-.228775-.7050343-.0460434-.2081528.1817741-.2282982.4973602-.0470028.7050343 1.5788918 1.8019123 3.9616165 2.7951946 6.3376274 2.7951946 5.054863 0 8.5486679-4.559269 8.1716766-8.9721527C45.9068604 10.1236715 41.5167351 6.1313105 36.3540878 7.2523413zM20.0855598 13.2211466c.1007175.6776953-.2647476 1.5433998-.9505978 1.7021523-.5956802.1333332-1.1961594-.2743397-1.496397-.7481985-.6216908-.976531-.4717655-2.6786776-.1851311-3.7865582C18.58955 10.9044189 19.9012775 11.9869728 20.0855598 13.2211466zM25.4428558 11.1439352c-1.0882168-.6880693-1.4881687-2.7773619-.1371708-4.6632938C28.2036533 8.4582024 27.0884418 12.1822939 25.4428558 11.1439352zM34.6581726 15.8959579c-1.8071976.8541584-3.6509781-.0682468-3.6009483-2.135725.0424213-1.8265781 1.8200874-4.4406528 4.8949471-5.3764801C38.0027313 11.4122257 36.8421211 14.8634377 34.6581726 15.8959579z"/>
</svg>