<svg xmlns="http://www.w3.org/2000/svg" enable-background="new 0 0 55 55" viewBox="0 0 55 55">
    <path fill="#f8d11c" d="M40.3663826,14.1969805c-0.2876091,1.2356625-0.3576584,3.0510302-1.2013702,4.348237    c-2.2090034,3.5334034-8.0767899,2.908968-10.1038418,0.6546612c-0.2538242-0.2735653-0.4981079-0.6253777-0.6154766-0.9869118    c-0.0782471-0.2442818-0.0391235-0.7035027-0.3812141-0.5666904c-0.2538242,0.0976887-0.5081272,0.7132854-0.6450577,0.9380054    c-2.2612877,3.650013-7.8519001,3.5944061-10.0542221-0.6253777c-0.205637-0.3713131-0.3716717-0.7719097-0.4985847-1.1725063    c-0.0586834-0.1856575-0.1364536-0.4397202-0.2051582-0.7328472c-0.2538242-1.0162535-0.4398994-2.4526043,0.4398994-2.8141375    c0.1560154-0.0684061,0.3416138-0.0879679,0.5276871-0.078187c0.3711948,0,0.7719707,0.0879679,1.0844803,0.0976887h0.0682278    c7.6875153,0.433547,18.1001644-0.257782,19.9920254-0.2051582    C39.6925926,13.0756578,40.5679283,13.3044691,40.3663826,14.1969805z"/>
    <path d="M40.6889114 27.5445404c-.8799019-3.9512749-.2090683-9.1140041-.4885635-12.4583979-.2062912 1.1692038-.3745384 2.443099-1.0353355 3.459075-.0768547 2.6980934-.1700172 6.5076408.44944 9.2436047 1.3678856 6.1168404 6.6051636 10.4944191 11.0218086 13.6114655.2442818.1758728.5959167.1172485.7619514-.1270332.1760559-.2442818.1173706-.596096-.1269112-.762188C47.0211678 37.4917679 41.9690094 33.2998466 40.6889114 27.5445404zM49.9620972 46.7647171c-1.025795 1.045536-2.8922615 1.6904144-4.4753265 1.5927238 2.677536-2.1182213 2.0143967-5.6801643-.3907547-6.4979324-2.0857162-.7175446-4.3547897 1.3580399-4.2019424 3.5665436.0882645 1.1822891.7624283 2.2766685 1.7686615 3.0290794-2.1568489.4377022-5.4603996.1527328-7.8948059-1.1334457 2.1743698-.6983414 3.0027275-2.2432785 2.6379623-4.0355492-.4788589-2.3528709-2.8269806-3.3537331-4.8565407-2.0910683-1.8828106 1.1725311-2.1616554 3.385891-.6154785 5.2862434-.8988819-.1074715-1.7782021-.4201584-2.530611-.9185066-1.4250317-.9490547-2.9765053-2.2702065-4.514452-1.2995377-.5372295.3321915-.8301773.8598785-1.1040421 1.3288803-1.3180428 2.6330719-4.7824249 2.5667725-6.1070576.293129-.3643055-.616993-.5945549-1.4885597-1.2509918-2.1301346-1.0353374-.9966927-2.6088591-.9087257-3.7129011-.3810959-2.4366455 1.1777-3.2134361 3.5001411-5.9992304 3.0486374-1.0749373-.1856537-2.1985407-1.1725044-2.1107516-2.2962303.1184893-1.305027 1.6222763-2.1831512 2.8140178-2.9704514 4.1432571-2.7652893 6.4000063-6.9474335 7.572752-9.9667282 1.6823139-4.3477364 1.5657825-8.9016666 2.3745956-13.2303696-.205637-.3713131-.3716717-.7719097-.4985847-1.1725063-.0586834-.1856575-.1364536-.4397202-.2051582-.7328472-1.2565489 4.8680115-.8697081 10.0327835-2.6966476 14.7350655-1.1140614 2.8727646-3.2539167 6.8496857-7.1528916 9.4488831-1.5165997 1.0001183-3.1487467 1.9948578-3.3025825 3.8009872-.1464739 1.7979431 1.4561517 3.2050133 3.0191767 3.4688568 3.3787794.5532646 4.4559431-2.0909195 6.6643267-3.1366043.7328472-.3517532 1.8173275-.449501 2.4719276.1758728.4665661.4505424.697525 1.284111 1.0653954 1.8956337.7714939 1.3191032 2.2667675 2.2083244 3.8006897 2.2473869 1.5243778.0293427 3.0683193-.7621307 3.9085159-2.0421677.365921-.563858.6207314-1.2016106 1.0358143-1.4559708.8970642-.5604362 2.1739082.5230255 3.3221455 1.2898178 1.2800961.840374 2.8340549 1.2311897 4.3579578 1.133503 3.2317581 2.3055801 8.3239937 2.5930176 10.8853531 1.5633812 2.261116.7775841 5.2078362-.1256714 6.7029724-1.6317902.2151794-.2149963.2151794-.5667496 0-.7816887C50.5289116 46.5497169 50.1767998 46.5497169 49.9620972 46.7647171zM33.4878311 46.4813118c-3.2383804-2.7221451-.2987633-5.3917465 1.6412735-4.5827408C36.6315308 42.5391159 37.5491142 45.9205742 33.4878311 46.4813118zM44.0306206 47.9763451c-2.133728-.9882088-2.7676544-3.3755684-1.0353394-4.6999893 1.6665535-1.2918816 3.4311333.3952789 3.0874062 2.2083244C45.8970871 46.4910927 45.1155777 47.4389381 44.0306206 47.9763451zM18.7817516 13.2589149c2.578413-5.7637382 6.9721031-8.0595894 13.4746494-6.3610611 3.4461594.8856187 5.6570091 2.5608358 6.5173759 6.1559029.4103203.0097809.8597603.0586252 1.1727486.22472-.8340378-4.2166996-3.3298645-6.3989329-7.4067192-7.4457202-6.9139366-1.7964897-12.0878143.5787301-14.9107628 7.3284698.3711948 0 .7719707.0879679 1.0844803.0976887H18.7817516z"/>
    <path d="M31.2692528 30.0877361c1.4790535 0 2.6823349-1.5229473 2.6823349-3.3951416 0-1.8721962-1.2032814-3.3951435-2.6823349-3.3951435-1.4790516 0-2.682333 1.5229473-2.682333 3.3951435C28.5869198 28.5647888 29.7902012 30.0877361 31.2692528 30.0877361zM31.2692528 24.3976765c.8573761 0 1.5821114 1.0510807 1.5821114 2.2949181 0 1.2438354-.7247353 2.2949181-1.5821114 2.2949181-.8573723 0-1.5821095-1.0510826-1.5821095-2.2949181C29.6871433 25.4487572 30.4118805 24.3976765 31.2692528 24.3976765zM30.6509132 20.3092861c.3034458 0 .5496349-.2452354.5501137-.5486794.0009537-.3039227-.2447605-.5510674-.5486813-.5515442-.6424408-.0012856-1.8715363-1.0316677-2.0706749-2.5411091-.0804043-.6123867-.9540081-.638607-1.0830479-.0443707-.2275848 1.0496502-.7280769 2.0263023-1.4475651 2.8235588-.2037277.2256756-.1860733.5739689.0396004.7772198.2278709.2051849.5760212.183754.7772198-.0396004.4752045-.5267353.8693008-1.1193104 1.1713142-1.7567348C29.1641216 20.3929043 30.819828 20.3429394 30.6509132 20.3092861zM42.6369705 10.9607172c.5034103 0 .8881111-.8525972 3.7434349-2.3536024.2690926-.1412258.3726273-.4737749.2313995-.7428665-.1407471-.2695694-.473774-.372149-.7428665-.2314005-1.2614899.6627111-2.4652481 1.453289-3.577877 2.349309C41.8866234 10.3075008 42.1196785 10.9607172 42.6369705 10.9607172zM42.9170341 12.9879742c.0085907.2986736.2528725.5348444.5496368.5348444.0983887 0 3.5073586-.0930071 3.4089775-.0944681.3039207-.0085878.5434341-.2614584.5348434-.5653801-.0090637-.3043985-.262886-.5400925-.5653763-.5348444l-3.3932343.0944681C43.1479568 12.4311819 42.9084473 12.6840525 42.9170341 12.9879742z"/>
</svg>